<svg xmlns="http://www.w3.org/2000/svg" width="256" height="256" viewBox="0 0 100 100"><rect width="100" height="100" rx="20" fill="#fddcd2"></rect><path fill="#950404" d="M53.83 84.34Q48.42 84.34 42.84 79.57L42.84 79.57L42.13 83.17L29.16 83.17L41.41 25.93L54.72 24.13L43.92 74.62Q46.45 76.42 49.05 76.42L49.05 76.42Q54.19 76.42 58.10 70.48Q62.02 64.54 64.17 55.36Q66.33 46.18 66.33 36.82L66.33 36.82Q66.33 28.00 62.87 23.90Q59.41 19.81 53.20 19.81L53.20 19.81Q46.45 19.81 41.09 22.46Q35.73 25.12 32.67 30.07Q29.62 35.02 29.62 41.68L29.62 41.68Q29.62 45.01 30.25 46.31Q30.88 47.62 30.88 47.80L30.88 47.80Q26.20 47.80 23.72 45.82Q21.25 43.84 21.25 39.43L21.25 39.43Q21.25 33.31 25.84 27.82Q30.43 22.33 38.12 19.00Q45.81 15.67 54.72 15.67L54.72 15.67Q67.06 15.67 72.91 22.96Q78.75 30.25 78.75 41.59L78.75 41.59Q78.75 51.85 75.29 61.79Q71.83 71.74 66.06 78.04Q60.31 84.34 53.83 84.34L53.83 84.34Z"></path></svg>