<?xml version="1.0" encoding="UTF-8"?><svg id="Layer_1" xmlns="http://www.w3.org/2000/svg" width="238.42" height="208.27" xmlns:xlink="http://www.w3.org/1999/xlink" viewBox="0 0 238.42 208.27"><defs><style>.cls-1{clip-path:url(#clippath-1);}.cls-2{fill:none;}.cls-3{opacity:.62;}.cls-4{fill:#f6c5d6;}</style><clipPath id="clippath"><rect class="cls-2" x="548.38" y="-84.87" width="239" height="209"/></clipPath><clipPath id="clippath-1"><rect class="cls-2" x=".38" y="-.24" width="239" height="209"/></clipPath></defs><g id="Group_168" class="cls-3"><g class="cls-1"><g id="Group_1-3"><path id="Path_1-3" class="cls-4" d="m119.76,50.06c15.03-41.29,78.58-71.5,109.24-21.87,4.85,7.85,8.89,17.05,8.89,28.91.37,11.49-1.48,76.37-118.12,150.06C106.8,203.16,3.12,127.54,2.01,59.7-2.07,19.29,68.29-43.72,119.76,50.06"/><path id="Path_2-3" class="cls-4" d="m119.76,50.06c15.03-41.29,78.58-71.5,109.24-21.87,4.85,7.85,8.89,17.05,8.89,28.91.37,11.49-1.48,76.37-118.12,150.06C106.8,203.16,3.12,127.54,2.01,59.7-2.07,19.29,68.29-43.72,119.76,50.06Z"/></g></g></g></svg>