<?xml version="1.0" encoding="UTF-8"?><svg id="Layer_1" xmlns="http://www.w3.org/2000/svg" width="238.42" height="208.27" xmlns:xlink="http://www.w3.org/1999/xlink" viewBox="0 0 238.42 208.27"><defs><style>.cls-1,.cls-2{fill:#f3a9c3;}.cls-3{clip-path:url(#clippath);}.cls-4{fill:none;}.cls-5{opacity:.62;}.cls-2{stroke:#f3a9c3;}</style><clipPath id="clippath"><rect class="cls-4" x=".38" y="-.37" width="239" height="209"/></clipPath></defs><g id="Group_166" class="cls-5"><g class="cls-3"><g id="Group_1"><path id="Path_1" class="cls-2" d="m119.76,49.94c15.03-41.29,78.58-71.5,109.24-21.87,4.85,7.85,8.89,17.05,8.89,28.91.37,11.49-1.48,76.37-118.12,150.06C106.8,203.03,3.12,127.41,2.01,59.57-2.07,19.17,68.29-43.85,119.76,49.94"/><path id="Path_2" class="cls-1" d="m119.76,49.94c15.03-41.29,78.58-71.5,109.24-21.87,4.85,7.85,8.89,17.05,8.89,28.91.37,11.49-1.48,76.37-118.12,150.06C106.8,203.03,3.12,127.41,2.01,59.57-2.07,19.17,68.29-43.85,119.76,49.94Z"/></g></g></g></svg>